<svg width="870" height="470" viewBox="0 0 870 470" fill="none" xmlns="http://www.w3.org/2000/svg">
<path d="M0 234.58C0 172.366 45.7934 112.699 127.306 68.7069C208.819 24.7146 319.374 0 434.65 0C549.926 0 660.481 24.7146 741.994 68.7069C823.507 112.699 869.3 172.366 869.3 234.58C869.3 296.794 823.507 356.461 741.994 400.453C660.481 444.445 549.926 469.16 434.65 469.16C319.374 469.16 208.819 444.445 127.306 400.453C45.7934 356.461 0 296.794 0 234.58ZM862.59 234.56C862.59 174.051 817.501 116.02 737.243 73.2336C656.985 30.4472 548.132 6.41 434.63 6.41C378.429 6.41 322.779 12.3113 270.857 23.7769C218.934 35.2425 171.756 52.0479 132.017 73.2336C51.7585 116.02 6.67 174.051 6.67 234.56C6.67 295.069 51.7585 353.1 132.017 395.886C171.756 417.072 218.934 433.877 270.857 445.343C322.779 456.809 378.429 462.71 434.63 462.71C548.132 462.71 656.985 438.673 737.243 395.886C817.501 353.1 862.59 295.069 862.59 234.56Z" fill="white"/>
<path d="M541.839 78.9391C542.126 78.9325 542.559 78.8891 543.139 78.8091C550.819 77.7358 557.476 76.8158 563.109 76.0491C573.482 74.6424 585.079 73.9958 597.899 74.1091C603.249 74.1591 608.469 75.1191 613.739 74.9891C615.939 74.9358 618.052 74.9924 620.079 75.1591C664.452 78.8724 705.706 91.0358 743.839 111.649C756.586 118.536 769.419 126.869 782.339 136.649C796.399 147.302 808.356 159.672 818.209 173.759C820.762 177.412 823.712 182.716 827.059 189.669C831.872 199.656 834.889 210.456 836.109 222.069C837.429 234.599 834.759 248.289 830.089 260.019C824.796 273.339 817.486 285.512 808.159 296.539C789.669 318.379 766.419 336.249 742.909 351.629C737.276 355.316 731.029 359.199 724.169 363.279C697.722 378.999 669.966 392.412 640.899 403.519C629.699 407.792 615.456 412.619 598.169 417.999C582.922 422.739 564.279 427.336 542.239 431.789C517.312 436.829 490.059 440.336 460.479 442.309C441.709 443.559 425.079 443.149 403.099 443.159C397.289 443.169 391.879 442.579 386.169 442.459C377.922 442.279 369.419 441.749 360.659 440.869C341.789 438.979 329.699 438.089 313.439 435.589C301.872 433.809 295.552 432.832 294.479 432.659C287.239 431.489 281.679 429.879 274.289 428.649C267.729 427.559 260.819 425.649 253.479 423.939C233.499 419.286 212.776 413.012 191.309 405.119C173.049 398.399 154.822 390.129 136.629 380.309C120.362 371.522 104.972 361.256 90.4589 349.509C83.8189 344.149 77.2589 337.679 70.7689 330.959C53.0389 312.629 39.2989 290.549 33.4689 266.029C32.8622 263.489 31.9322 257.346 30.6789 247.599C30.0456 242.712 30.0056 238.009 30.5589 233.489C31.8589 222.916 33.1489 215.272 34.4289 210.559C37.6022 198.892 42.4156 187.692 48.8689 176.959C57.2622 162.992 67.4189 150.319 79.3389 138.939C98.6089 120.559 120.799 105.069 143.799 92.4491C161.219 82.8891 179.552 74.4024 198.799 66.9891C228.846 55.4224 259.666 46.3425 291.259 39.7491C298.939 38.1491 306.089 37.0891 313.559 35.3191C315.972 34.7458 318.959 34.2225 322.519 33.7491C324.766 33.4491 332.636 32.2991 346.129 30.2991C358.969 28.3891 367.099 27.9391 381.369 26.4491C394.059 25.1291 407.579 24.6591 420.149 23.9791C432.989 23.2791 445.379 23.7391 458.769 23.6391C470.039 23.5591 481.099 24.2791 493.389 24.8191C497.976 25.0191 502.586 25.3158 507.219 25.7091C528.526 27.5024 550.259 30.1124 572.419 33.5391C577.312 34.2991 581.752 35.1491 585.739 36.0891C591.199 37.3791 596.529 38.0691 603.519 39.6091C615.059 42.1558 627.316 45.2158 640.289 48.7891C640.447 48.8319 640.595 48.9055 640.724 49.0057C640.853 49.106 640.962 49.2308 641.042 49.373C641.123 49.5152 641.175 49.672 641.195 49.8344C641.215 49.9968 641.203 50.1615 641.159 50.3191L638.819 58.8691C638.75 59.122 638.631 59.3584 638.469 59.5645C638.307 59.7705 638.106 59.9421 637.876 60.0689C637.647 60.1956 637.394 60.2751 637.134 60.3027C636.873 60.3302 636.61 60.3052 636.359 60.2291C625.486 56.9558 615.336 54.2624 605.909 52.1491C585.496 47.5824 569.422 44.4624 557.689 42.7891C547.559 41.3491 528.189 38.5791 513.929 37.5291C494.169 36.0825 480.409 35.1858 472.649 34.8391C464.109 34.4525 450.119 34.3258 430.679 34.4591C425.739 34.4924 420.486 34.6658 414.919 34.9791C395.272 36.0724 379.086 37.2524 366.359 38.5191C319.419 43.1991 272.239 52.7191 226.979 67.3991C200.966 75.8324 175.786 86.4758 151.439 99.3291C131.826 109.689 113.732 121.772 97.1589 135.579C89.3722 142.059 82.8622 148.202 77.6289 154.009C67.5689 165.169 59.6589 175.679 52.7189 188.639C44.3256 204.339 39.7322 221.349 38.9389 239.669C38.8322 242.136 38.9256 244.399 39.2189 246.459C39.5789 248.986 39.8622 251.242 40.0689 253.229C41.0756 262.762 43.6489 272.339 47.7889 281.959C63.5589 318.569 95.0389 345.919 128.409 366.269C167.649 390.199 212.149 406.269 257.819 417.629C261.146 418.462 265.056 419.332 269.549 420.239C274.699 421.279 279.819 422.769 285.239 423.679C289.786 424.446 294.109 425.236 298.209 426.049C308.669 428.139 322.559 429.709 329.969 430.839C336.489 431.839 342.759 432.589 348.779 433.089C364.372 434.389 377.252 435.309 387.419 435.849C393.772 436.182 397.216 436.369 397.749 436.409C409.349 437.299 423.509 436.869 431.419 436.889C441.279 436.916 447.309 436.789 449.509 436.509C454.539 435.879 460.579 436.409 465.139 435.639C469.269 434.939 472.809 435.259 477.289 434.719C485.389 433.739 497.689 433.049 508.729 431.369C521.949 429.356 530.362 428.029 533.969 427.389C541.496 426.042 550.972 424.082 562.399 421.509C611.246 410.509 658.499 392.929 704.159 368.769C720.739 359.996 738.726 348.816 758.119 335.229C774.679 323.622 789.876 310.166 803.709 294.859C814.762 282.632 822.879 268.849 828.059 253.509C834.219 235.282 833.879 217.229 827.039 199.349C821.219 184.122 813.132 170.959 802.779 159.859C789.569 145.709 773.449 133.319 756.679 122.819C741.306 113.199 725.089 104.996 708.029 98.2091C703.722 96.4958 697.749 94.3791 690.109 91.8591C683.062 89.5391 676.976 87.7391 671.849 86.4591C654.769 82.2058 637.586 79.2624 620.299 77.6291C613.546 76.9891 606.609 76.7224 599.489 76.8291C586.056 77.0224 579.119 77.1258 578.679 77.1391C571.132 77.3991 558.906 78.7224 541.999 81.1091C541.91 81.122 541.819 81.1156 541.733 81.0904C541.646 81.0652 541.566 81.0217 541.498 80.963C541.43 80.9042 541.375 80.8315 541.337 80.7498C541.299 80.668 541.279 80.5791 541.279 80.4891V79.5091C541.279 79.3596 541.338 79.2162 541.442 79.1096C541.547 79.0029 541.689 78.9417 541.839 78.9391Z" fill="#DE4876"/>
<path d="M219.651 157.681C217.517 159.781 214.997 161.211 212.091 161.971C205.501 163.711 199.991 164.301 193.621 162.121C185.407 159.301 177.777 154.751 170.731 148.471C170.551 148.312 170.406 148.118 170.305 147.901C170.204 147.683 170.15 147.447 170.145 147.207C170.14 146.967 170.185 146.729 170.278 146.508C170.37 146.286 170.507 146.086 170.681 145.921C177.321 139.554 184.444 135.014 192.051 132.301C192.115 132.278 192.174 132.242 192.224 132.195C192.274 132.148 192.313 132.091 192.339 132.028C192.366 131.965 192.378 131.897 192.377 131.829C192.376 131.76 192.36 131.693 192.331 131.631C189.657 126.024 187.911 121.004 187.091 116.571C186.491 113.298 185.891 108.874 185.291 103.301C185.266 103.083 185.289 102.862 185.358 102.654C185.428 102.445 185.542 102.255 185.694 102.095C185.845 101.935 186.03 101.81 186.235 101.728C186.44 101.646 186.66 101.609 186.881 101.621C195.767 102.081 204.444 103.901 212.911 107.081C214.231 107.574 215.341 108.131 216.241 108.751C216.379 108.846 216.536 108.909 216.701 108.937C216.866 108.965 217.035 108.957 217.196 108.913C217.357 108.869 217.506 108.791 217.633 108.683C217.76 108.576 217.862 108.442 217.931 108.291C221.464 100.664 226.291 94.0976 232.411 88.5909C232.504 88.5063 232.615 88.4427 232.735 88.4046C232.855 88.3664 232.982 88.3545 233.107 88.3697C233.232 88.3849 233.353 88.4267 233.46 88.4925C233.568 88.5583 233.66 88.6464 233.731 88.7509C234.271 89.5576 235.717 91.2576 238.071 93.8509C241.531 97.6609 244.611 102.871 246.941 107.601C247.082 107.882 247.325 108.098 247.619 108.204C247.913 108.31 248.236 108.298 248.521 108.171C257.514 104.178 266.894 102.024 276.661 101.711C276.9 101.702 277.134 101.785 277.314 101.943C277.495 102.101 277.608 102.322 277.631 102.561C278.081 107.701 277.121 113.441 276.341 117.841C275.474 122.741 273.677 127.341 270.951 131.641C270.923 131.687 270.905 131.739 270.897 131.792C270.89 131.845 270.894 131.899 270.91 131.95C270.925 132.001 270.951 132.048 270.985 132.088C271.02 132.128 271.063 132.16 271.111 132.181C278.744 135.654 285.811 140.268 292.311 146.021C292.481 146.171 292.617 146.355 292.71 146.562C292.802 146.769 292.849 146.994 292.847 147.221C292.845 147.447 292.795 147.671 292.699 147.876C292.603 148.082 292.463 148.264 292.291 148.411C287.877 152.164 282.911 155.624 277.391 158.791C266.771 164.878 256.174 165.228 245.601 159.841C242.531 158.281 238.201 154.901 236.191 153.001C233.304 150.261 229.714 146.704 225.421 142.331C221.541 138.381 214.531 134.421 208.331 134.171C204.497 134.011 201.271 134.451 198.651 135.491C192.651 137.881 186.191 141.921 180.881 146.511C180.78 146.597 180.7 146.705 180.647 146.827C180.594 146.949 180.569 147.081 180.574 147.214C180.579 147.347 180.613 147.478 180.675 147.597C180.737 147.716 180.824 147.82 180.931 147.901C185.491 151.401 189.837 154.344 193.971 156.731C201.771 161.231 211.641 162.211 219.381 157.341C219.426 157.316 219.479 157.307 219.531 157.317C219.582 157.327 219.628 157.355 219.66 157.396C219.692 157.437 219.709 157.488 219.708 157.54C219.706 157.592 219.686 157.642 219.651 157.681ZM233.351 145.911L233.861 145.201C234.166 144.776 234.529 144.393 234.941 144.061C245.221 135.881 249.341 124.281 242.661 112.271C240.207 107.858 236.944 103.498 232.871 99.1909C232.793 99.1064 232.697 99.0409 232.59 98.9997C232.483 98.9586 232.367 98.9427 232.253 98.9533C232.138 98.9639 232.026 99.0008 231.927 99.061C231.828 99.1213 231.744 99.2034 231.681 99.3009C230.527 101.088 229.131 102.844 227.491 104.571C227.005 105.083 226.576 105.639 226.211 106.231C225.024 108.164 223.704 110.138 222.251 112.151C221.131 113.704 219.871 116.761 218.471 121.321C217.041 125.991 219.931 132.281 222.441 136.351C222.514 136.457 222.598 136.555 222.691 136.641L232.541 145.991C232.598 146.044 232.665 146.085 232.739 146.111C232.813 146.136 232.891 146.145 232.968 146.137C233.045 146.13 233.119 146.106 233.185 146.066C233.251 146.027 233.308 145.974 233.351 145.911ZM219.311 133.571C217.284 129.798 215.904 125.988 215.171 122.141C214.681 119.561 215.001 117.971 215.531 114.761C215.573 114.5 215.523 114.233 215.387 114.006C215.252 113.779 215.041 113.607 214.791 113.521C208.084 111.174 201.237 109.798 194.251 109.391C194.158 109.386 194.066 109.399 193.979 109.431C193.892 109.462 193.812 109.511 193.744 109.574C193.676 109.638 193.621 109.714 193.583 109.8C193.544 109.885 193.523 109.977 193.521 110.071C193.374 116.858 194.541 123.211 197.021 129.131C197.162 129.461 197.394 129.744 197.689 129.947C197.985 130.151 198.332 130.267 198.691 130.281C201.281 130.371 205.581 130.131 208.361 130.771C211.674 131.544 215.044 132.768 218.471 134.441C218.591 134.497 218.727 134.514 218.857 134.489C218.988 134.465 219.108 134.4 219.2 134.305C219.293 134.209 219.353 134.087 219.373 133.955C219.393 133.824 219.371 133.69 219.311 133.571ZM247.351 133.891L255.441 130.491C255.956 130.273 256.506 130.161 257.061 130.161H265.831C265.962 130.161 266.091 130.12 266.198 130.043C266.306 129.966 266.387 129.857 266.431 129.731C268.664 123.218 270.004 116.801 270.451 110.481C270.459 110.355 270.441 110.229 270.398 110.111C270.355 109.993 270.287 109.885 270.199 109.794C270.112 109.704 270.006 109.633 269.889 109.586C269.772 109.538 269.647 109.516 269.521 109.521C264.487 109.768 258.221 110.831 250.721 112.711C250.333 112.807 249.992 113.042 249.763 113.37C249.533 113.699 249.429 114.101 249.471 114.501C250.091 120.461 250.001 127.461 246.681 133.141C246.625 133.237 246.602 133.349 246.614 133.46C246.625 133.57 246.671 133.674 246.745 133.757C246.819 133.84 246.918 133.898 247.027 133.922C247.135 133.946 247.249 133.935 247.351 133.891ZM281.941 146.791C281.734 146.411 281.561 146.161 281.421 146.041C277.467 142.754 273.027 139.788 268.101 137.141C260.471 133.031 254.271 132.331 246.311 135.681C245.394 136.064 244.618 136.729 244.091 137.581C242.084 140.808 239.204 143.901 235.451 146.861C235.297 146.984 235.18 147.146 235.111 147.33C235.042 147.513 235.025 147.71 235.061 147.901C235.254 148.874 235.937 149.834 237.111 150.781C244.011 156.361 249.761 160.971 258.521 160.251C259.039 160.211 259.549 160.11 260.041 159.951C267.781 157.524 275.037 153.354 281.811 147.441C281.904 147.363 281.968 147.255 281.992 147.137C282.015 147.018 281.997 146.896 281.941 146.791Z" fill="#DE4876"/>
<path d="M150.721 208.722C150.761 208.956 150.907 209.982 151.161 211.802C153.101 225.732 170.681 227.032 181.341 225.712C185.091 225.252 188.721 223.602 191.251 222.022C193.744 220.469 195.251 217.929 195.771 214.402C197.371 203.612 183.471 200.472 175.661 198.942C169.221 197.689 164.997 196.752 162.991 196.132C155.571 193.832 150.341 192.392 145.701 187.462C141.091 182.562 141.331 173.472 145.941 168.722C150.801 163.722 156.671 162.152 163.591 161.032C168.421 160.242 173.171 160.572 178.001 160.442C179.501 160.402 181.421 160.609 183.761 161.062C188.951 162.072 192.541 162.582 196.401 165.112C201.081 168.172 204.891 172.862 205.731 179.002C205.746 179.117 205.737 179.233 205.704 179.344C205.671 179.454 205.615 179.557 205.539 179.644C205.464 179.731 205.37 179.801 205.265 179.849C205.16 179.897 205.046 179.922 204.931 179.922H196.771C196.508 179.923 196.253 179.834 196.047 179.671C195.84 179.508 195.693 179.279 195.631 179.022C193.931 172.182 189.394 168.062 182.021 166.662C173.901 165.122 158.821 164.532 154.661 173.742C151.961 179.732 156.311 183.392 161.291 185.442C173.661 190.552 187.741 190.022 199.561 197.012C205.791 200.682 208.011 206.602 207.561 213.772C206.921 224.132 195.301 229.362 186.571 230.692C177.457 232.086 168.434 231.839 159.501 229.952C158.161 229.672 155.724 228.612 152.191 226.772C145.564 223.312 141.704 217.662 140.611 209.822C140.584 209.625 140.599 209.425 140.656 209.234C140.713 209.044 140.81 208.868 140.941 208.718C141.072 208.568 141.233 208.448 141.414 208.366C141.595 208.284 141.792 208.242 141.991 208.242H150.141C150.278 208.242 150.411 208.29 150.517 208.378C150.623 208.465 150.695 208.587 150.721 208.722Z" fill="white"/>
<path d="M325.171 230.77L314.221 230.74C314.119 230.741 314.019 230.712 313.932 230.659C313.846 230.606 313.776 230.531 313.731 230.44L305.371 213.69C305.263 213.471 305.095 213.287 304.887 213.158C304.678 213.029 304.437 212.961 304.191 212.96L266.101 212.94C265.629 212.939 265.166 213.069 264.763 213.319C264.36 213.568 264.034 213.925 263.821 214.35L256.241 229.5C256.043 229.897 255.738 230.23 255.362 230.464C254.986 230.697 254.553 230.82 254.111 230.82L248.641 230.81C248.475 230.811 248.311 230.767 248.167 230.685C248.022 230.602 247.902 230.483 247.817 230.338C247.733 230.194 247.687 230.03 247.684 229.862C247.681 229.694 247.721 229.528 247.801 229.38L284.071 161.53C284.244 161.213 284.498 160.948 284.808 160.763C285.118 160.578 285.471 160.481 285.831 160.48L290.521 160.49C290.725 160.49 290.925 160.547 291.099 160.655C291.272 160.763 291.411 160.917 291.501 161.1L325.831 229.72C325.886 229.832 325.911 229.956 325.904 230.08C325.897 230.204 325.859 230.324 325.793 230.429C325.727 230.534 325.635 230.621 325.526 230.68C325.418 230.74 325.295 230.771 325.171 230.77ZM285.961 173.98C285.931 173.917 285.883 173.863 285.823 173.825C285.764 173.787 285.695 173.766 285.624 173.765C285.554 173.764 285.484 173.783 285.424 173.819C285.363 173.855 285.314 173.908 285.281 173.97L267.601 207.02C267.57 207.078 267.555 207.143 267.556 207.208C267.557 207.273 267.575 207.337 267.608 207.393C267.642 207.45 267.689 207.497 267.745 207.529C267.802 207.562 267.866 207.58 267.931 207.58H302.141C302.206 207.58 302.27 207.564 302.326 207.532C302.383 207.501 302.431 207.455 302.465 207.4C302.499 207.345 302.518 207.282 302.521 207.218C302.524 207.153 302.51 207.088 302.481 207.03L285.961 173.98Z" fill="white"/>
<path d="M549.341 212.91H510.181C510.036 212.908 509.893 212.947 509.768 213.021C509.642 213.095 509.54 213.202 509.471 213.33L500.401 230.31C500.332 230.437 500.229 230.544 500.104 230.618C499.979 230.692 499.836 230.731 499.691 230.73H493.271C493.132 230.731 492.995 230.695 492.874 230.627C492.752 230.56 492.651 230.461 492.579 230.342C492.508 230.223 492.468 230.087 492.465 229.948C492.462 229.809 492.495 229.672 492.561 229.55L529.271 160.94C529.34 160.812 529.442 160.705 529.568 160.631C529.693 160.557 529.836 160.518 529.981 160.52H535.581C535.728 160.52 535.873 160.562 535.998 160.64C536.123 160.717 536.225 160.828 536.291 160.96L570.581 229.57C570.642 229.691 570.671 229.826 570.666 229.963C570.66 230.099 570.62 230.231 570.549 230.347C570.478 230.463 570.378 230.559 570.259 230.626C570.141 230.693 570.007 230.729 569.871 230.73H559.221C559.073 230.729 558.929 230.687 558.804 230.61C558.679 230.532 558.577 230.421 558.511 230.29L550.051 213.35C549.985 213.218 549.883 213.107 549.758 213.03C549.633 212.952 549.488 212.91 549.341 212.91ZM530.781 173.92C530.752 173.862 530.708 173.814 530.654 173.78C530.6 173.747 530.538 173.728 530.474 173.727C530.41 173.726 530.347 173.742 530.292 173.775C530.237 173.807 530.191 173.853 530.161 173.91L512.431 207.05C512.402 207.102 512.386 207.162 512.387 207.222C512.387 207.283 512.403 207.342 512.434 207.394C512.464 207.447 512.507 207.491 512.559 207.521C512.611 207.552 512.67 207.569 512.731 207.57H547.041C547.102 207.571 547.162 207.557 547.215 207.528C547.269 207.499 547.314 207.457 547.346 207.406C547.378 207.354 547.397 207.295 547.399 207.235C547.402 207.174 547.389 207.114 547.361 207.06L530.781 173.92Z" fill="white"/>
<path d="M627.779 179.891C627.702 179.891 627.627 179.863 627.57 179.811C627.512 179.759 627.477 179.688 627.469 179.611C626.899 174.081 623.949 171.381 619.929 168.661C618.669 167.814 617.112 167.201 615.259 166.821C609.179 165.581 603.139 165.471 597.139 166.491C592.409 167.301 586.969 170.481 585.869 175.521C585.049 179.261 588.319 182.931 591.419 184.551C595.809 186.821 600.249 188.191 605.859 189.101C611.766 190.067 618.409 191.764 625.789 194.191C636.169 197.611 643.549 208.151 637.999 218.971C636.152 222.564 633.372 225.287 629.659 227.141C624.172 229.867 618.089 231.311 611.409 231.471C594.469 231.861 575.559 229.561 572.439 209.151C572.422 209.041 572.428 208.929 572.459 208.822C572.489 208.715 572.542 208.615 572.614 208.531C572.686 208.446 572.776 208.378 572.877 208.332C572.978 208.285 573.088 208.261 573.199 208.261H581.499C581.731 208.26 581.956 208.34 582.136 208.485C582.316 208.631 582.441 208.834 582.489 209.061C583.922 216.241 586.576 220.734 590.449 222.541C593.469 223.954 595.686 224.811 597.099 225.111C604.069 226.611 616.149 227.051 622.399 222.631C628.266 218.477 629.566 213.261 626.299 206.981C624.209 202.941 611.919 199.631 608.059 198.921C604.359 198.241 599.789 197.651 595.279 196.201C588.149 193.901 575.319 190.731 574.969 181.351C574.749 175.591 574.589 170.481 579.709 166.811C584.229 163.561 588.809 162.071 595.009 161.091C598.169 160.591 600.952 160.394 603.359 160.501C606.999 160.661 610.769 160.341 614.719 160.831C621.399 161.661 627.659 163.731 632.839 168.551C635.646 171.164 637.229 174.844 637.589 179.591C637.593 179.629 637.589 179.667 637.578 179.703C637.566 179.74 637.547 179.773 637.521 179.801C637.496 179.83 637.465 179.852 637.43 179.868C637.395 179.883 637.357 179.891 637.319 179.891H627.779Z" fill="white"/>
<path d="M402.579 175.962C402.58 175.887 402.554 175.813 402.507 175.754C402.46 175.695 402.394 175.654 402.321 175.638C402.247 175.621 402.17 175.631 402.102 175.664C402.035 175.698 401.981 175.754 401.949 175.822C395.809 188.329 388.056 204.422 378.689 224.102C376.319 229.072 375.859 232.122 370.259 230.572C370.057 230.515 369.868 230.416 369.705 230.282C369.542 230.148 369.407 229.981 369.309 229.792L341.439 175.362C341.414 175.318 341.375 175.284 341.329 175.264C341.283 175.244 341.231 175.24 341.182 175.253C341.133 175.265 341.09 175.294 341.058 175.333C341.027 175.373 341.01 175.422 341.009 175.472V230.482C341.009 230.551 340.981 230.617 340.93 230.666C340.879 230.715 340.811 230.742 340.739 230.742H334.069C333.995 230.742 333.924 230.713 333.871 230.66C333.819 230.608 333.789 230.536 333.789 230.462V162.042C333.789 161.841 333.869 161.647 334.012 161.505C334.154 161.362 334.348 161.282 334.549 161.282H345.069C345.397 161.283 345.718 161.366 346.004 161.526C346.289 161.685 346.528 161.914 346.699 162.192C347.899 164.182 349.129 165.922 349.989 167.682C352.829 173.436 360.882 189.562 374.149 216.062C374.189 216.14 374.25 216.204 374.325 216.249C374.399 216.294 374.485 216.317 374.572 216.316C374.659 216.315 374.744 216.29 374.818 216.243C374.892 216.197 374.951 216.131 374.989 216.052L400.769 162.542C400.957 162.152 401.253 161.823 401.62 161.593C401.988 161.363 402.414 161.242 402.849 161.242H412.939C413.109 161.242 413.272 161.31 413.392 161.43C413.512 161.55 413.579 161.712 413.579 161.882V230.352C413.579 230.407 413.568 230.462 413.548 230.513C413.527 230.564 413.497 230.61 413.459 230.649C413.421 230.688 413.376 230.719 413.326 230.74C413.276 230.761 413.223 230.772 413.169 230.772H403.219C403.049 230.772 402.887 230.704 402.767 230.582C402.646 230.46 402.579 230.295 402.579 230.122V175.962Z" fill="white"/>
<path d="M440.41 225.392H488.56C488.652 225.392 488.743 225.41 488.828 225.445C488.913 225.48 488.99 225.532 489.055 225.597C489.12 225.662 489.172 225.739 489.207 225.824C489.242 225.909 489.26 226 489.26 226.092V230.042C489.26 230.134 489.242 230.225 489.207 230.31C489.172 230.395 489.12 230.472 489.055 230.537C488.99 230.602 488.913 230.654 488.828 230.689C488.743 230.724 488.652 230.742 488.56 230.742H428.93C428.745 230.742 428.567 230.668 428.435 230.537C428.304 230.406 428.23 230.228 428.23 230.042V162.032C428.23 161.94 428.249 161.849 428.284 161.764C428.319 161.679 428.37 161.602 428.435 161.537C428.5 161.472 428.578 161.42 428.663 161.385C428.748 161.35 428.839 161.332 428.93 161.332H488.57C488.662 161.332 488.753 161.35 488.838 161.385C488.923 161.42 489 161.472 489.065 161.537C489.13 161.602 489.182 161.679 489.217 161.764C489.252 161.849 489.27 161.94 489.27 162.032V165.882C489.27 166.068 489.197 166.246 489.065 166.377C488.934 166.508 488.756 166.582 488.57 166.582H440.41C440.319 166.582 440.228 166.6 440.143 166.635C440.058 166.67 439.98 166.722 439.915 166.787C439.85 166.852 439.799 166.929 439.764 167.014C439.729 167.099 439.71 167.19 439.71 167.282V189.752C439.71 189.938 439.784 190.116 439.915 190.247C440.047 190.378 440.225 190.452 440.41 190.452H483.21C483.396 190.452 483.574 190.526 483.705 190.657C483.837 190.788 483.91 190.966 483.91 191.152V195.122C483.91 195.308 483.837 195.486 483.705 195.617C483.574 195.748 483.396 195.822 483.21 195.822H440.41C440.225 195.822 440.047 195.896 439.915 196.027C439.784 196.158 439.71 196.336 439.71 196.522V224.692C439.71 224.878 439.784 225.056 439.915 225.187C440.047 225.318 440.225 225.392 440.41 225.392Z" fill="white"/>
<path d="M664.44 195.821C664.342 195.821 664.245 195.84 664.155 195.877C664.065 195.915 663.982 195.969 663.914 196.038C663.845 196.107 663.791 196.189 663.754 196.278C663.717 196.368 663.699 196.464 663.7 196.561L663.74 224.671C663.74 224.862 663.815 225.045 663.948 225.18C664.082 225.315 664.262 225.391 664.45 225.391L712.11 225.361C712.409 225.361 712.696 225.478 712.91 225.688C713.123 225.897 713.245 226.182 713.25 226.481L713.31 229.641C713.312 229.783 713.285 229.925 713.231 230.057C713.177 230.189 713.098 230.31 712.998 230.411C712.897 230.512 712.778 230.593 712.646 230.648C712.514 230.703 712.373 230.731 712.23 230.731L652.72 230.721C652.593 230.721 652.471 230.67 652.381 230.58C652.291 230.49 652.24 230.368 652.24 230.241L652.23 161.651C652.23 161.558 652.268 161.469 652.336 161.403C652.403 161.338 652.495 161.301 652.59 161.301L712.25 161.391C712.498 161.391 712.737 161.487 712.916 161.661C713.094 161.834 713.2 162.071 713.21 162.321L713.33 165.691C713.334 165.801 713.316 165.911 713.277 166.014C713.237 166.117 713.178 166.211 713.101 166.29C713.025 166.369 712.933 166.433 712.831 166.476C712.73 166.519 712.621 166.541 712.51 166.541L664.64 166.641C664.391 166.641 664.152 166.739 663.976 166.913C663.799 167.088 663.7 167.324 663.7 167.571L663.72 189.831C663.72 189.991 663.783 190.144 663.896 190.259C664.008 190.373 664.16 190.438 664.32 190.441L707.02 190.471C707.244 190.471 707.459 190.559 707.618 190.716C707.777 190.873 707.868 191.087 707.87 191.311L707.94 194.931C707.942 195.047 707.92 195.163 707.876 195.271C707.833 195.379 707.768 195.477 707.686 195.56C707.604 195.642 707.507 195.708 707.4 195.753C707.292 195.798 707.177 195.821 707.06 195.821H664.44Z" fill="white"/>
<path d="M236.689 161.313L226.449 161.331C226.085 161.332 225.79 161.628 225.79 161.992L225.909 230.072C225.91 230.436 226.206 230.731 226.57 230.731L236.81 230.713C237.175 230.712 237.47 230.416 237.469 230.052L237.35 161.972C237.35 161.607 237.054 161.312 236.689 161.313Z" fill="white"/>
<path d="M777.029 267.233C769.449 265.863 762.669 267.183 755.679 267.283C749.572 267.363 742.759 268.389 735.239 270.363C731.379 271.373 727.229 271.813 723.209 273.653C723.196 273.659 723.179 273.663 723.159 273.663L722.659 273.673C722.565 273.676 722.472 273.651 722.392 273.6C722.313 273.55 722.25 273.477 722.213 273.391C722.175 273.305 722.164 273.21 722.181 273.117C722.198 273.025 722.243 272.94 722.309 272.873C725.235 269.833 728.212 267.356 731.239 265.443C734.309 263.503 734.869 261.873 735.489 258.843C735.795 257.329 736.342 253.936 737.129 248.663C738.419 239.983 737.719 230.803 737.539 222.013C737.544 221.946 737.523 221.881 737.48 221.83C737.436 221.779 737.375 221.748 737.309 221.743C737.242 221.737 737.177 221.759 737.126 221.802C737.075 221.845 737.044 221.906 737.039 221.973C736.572 224.273 736.339 226.126 736.339 227.533C736.365 238.893 734.985 250.569 732.199 262.563C732.105 262.949 732.032 263.183 731.979 263.263C731.873 263.422 731.732 263.555 731.566 263.652C731.401 263.748 731.216 263.806 731.025 263.821C730.834 263.835 730.643 263.806 730.465 263.735C730.287 263.664 730.128 263.554 729.999 263.413C721.249 253.653 716.849 242.483 719.639 229.783C720.719 224.856 722.972 219.689 726.399 214.283C729.712 209.043 733.109 204.506 736.589 200.673C736.653 200.602 736.732 200.546 736.821 200.51C736.91 200.475 737.005 200.46 737.101 200.466C737.196 200.473 737.289 200.502 737.372 200.549C737.454 200.597 737.525 200.663 737.579 200.743C742.532 207.883 745.812 215.513 747.419 223.633C748.719 230.219 748.732 236.506 747.459 242.493C746.165 248.559 743.649 254.326 739.909 259.793C739.872 259.845 739.853 259.909 739.856 259.973C739.858 260.037 739.882 260.098 739.923 260.149C739.965 260.199 740.022 260.235 740.085 260.252C740.149 260.269 740.217 260.266 740.279 260.243C749.419 256.453 759.319 254.613 769.649 255.803C780.569 257.056 790.769 260.389 800.249 265.803C800.398 265.889 800.524 266.01 800.615 266.156C800.707 266.302 800.761 266.469 800.773 266.641C800.785 266.813 800.754 266.985 800.684 267.142C800.613 267.3 800.505 267.437 800.369 267.543C788.879 276.473 776.859 286.273 762.419 287.633C748.925 288.906 736.845 285.363 726.179 277.003C725.759 276.669 725.495 276.409 725.389 276.223C725.328 276.115 725.293 275.995 725.287 275.871C725.281 275.747 725.303 275.624 725.353 275.511C725.402 275.397 725.477 275.297 725.572 275.218C725.667 275.138 725.778 275.082 725.899 275.053C742.579 270.979 759.615 268.449 777.009 267.463C777.039 267.463 777.07 267.451 777.094 267.429C777.117 267.407 777.132 267.378 777.135 267.348C777.137 267.317 777.128 267.288 777.108 267.266C777.088 267.245 777.059 267.233 777.029 267.233Z" fill="#6C9549"/>
<path d="M446.98 303.692C446.983 303.752 446.973 303.813 446.952 303.87C446.93 303.927 446.898 303.979 446.856 304.023C446.814 304.067 446.763 304.102 446.707 304.126C446.651 304.149 446.591 304.162 446.53 304.162L440.97 304.152C440.726 304.151 440.487 304.083 440.278 303.954C440.07 303.825 439.901 303.641 439.79 303.422L432.48 288.742C432.33 288.444 432.1 288.193 431.816 288.018C431.531 287.844 431.204 287.751 430.87 287.752L395.2 287.722C395.052 287.722 394.906 287.762 394.779 287.838C394.653 287.913 394.549 288.022 394.48 288.152L386.47 303.042C386.207 303.533 385.787 303.923 385.276 304.149C384.766 304.375 384.194 304.425 383.65 304.292L383.45 304.242C383.213 304.182 382.993 304.068 382.807 303.91C382.62 303.752 382.472 303.553 382.374 303.329C382.276 303.104 382.23 302.86 382.24 302.614C382.249 302.369 382.314 302.129 382.43 301.912C401.017 267.185 411.587 247.452 414.14 242.712C414.327 242.372 414.527 242.168 414.74 242.102C415.187 241.967 415.669 241.999 416.102 242.193C416.534 242.387 416.888 242.73 417.1 243.162C420.347 249.775 430.17 269.435 446.57 302.142C446.824 302.648 446.96 303.165 446.98 303.692ZM414.32 251.732C414.293 251.679 414.253 251.635 414.202 251.604C414.152 251.573 414.094 251.557 414.035 251.557C413.976 251.557 413.918 251.573 413.868 251.604C413.818 251.635 413.777 251.679 413.75 251.732L396.72 283.552C396.694 283.6 396.682 283.655 396.683 283.71C396.684 283.765 396.7 283.818 396.728 283.865C396.756 283.913 396.796 283.952 396.844 283.979C396.891 284.007 396.945 284.021 397 284.022H429.93C429.985 284.022 430.038 284.009 430.086 283.982C430.134 283.956 430.174 283.918 430.203 283.872C430.232 283.826 430.249 283.774 430.252 283.719C430.255 283.665 430.244 283.611 430.22 283.562L414.32 251.732Z" fill="white"/>
<path d="M501.072 285.659C501.059 285.552 501.069 285.443 501.102 285.339C501.134 285.236 501.188 285.141 501.259 285.059C501.331 284.978 501.419 284.913 501.518 284.868C501.616 284.823 501.723 284.8 501.832 284.799H505.862C506.167 284.8 506.462 284.912 506.69 285.114C506.919 285.317 507.065 285.596 507.102 285.899C507.848 292.126 511.418 296.479 517.812 298.959C521.192 300.269 525.422 299.869 528.162 300.729C528.645 300.886 529.162 300.9 529.652 300.769C530.858 300.443 533.262 300.186 536.862 299.999C539.232 299.879 542.662 298.349 544.892 297.049C547.852 295.329 549.518 292.659 549.892 289.039C550.492 283.199 546.452 280.659 541.612 278.099C541.187 277.867 540.733 277.689 540.262 277.569C536.082 276.489 533.812 275.689 530.362 275.099C525.168 274.206 520.138 273.079 515.272 271.719C508.842 269.919 504.052 267.039 502.662 260.209C501.062 252.369 507.662 246.109 514.902 244.249C519.862 242.969 524.345 242.266 528.352 242.139C532.262 242.019 535.292 242.969 538.642 243.459C543.762 244.219 548.092 246.709 551.632 250.929C553.222 252.839 553.752 255.189 554.032 257.639C554.046 257.76 554.035 257.882 553.999 257.999C553.963 258.115 553.904 258.222 553.825 258.313C553.746 258.405 553.648 258.478 553.539 258.529C553.43 258.58 553.312 258.607 553.192 258.609L549.232 258.659C549.056 258.662 548.884 258.606 548.743 258.501C548.603 258.397 548.5 258.248 548.452 258.079C548.405 257.919 547.858 256.803 546.812 254.729C544.462 250.099 540.932 248.869 535.862 247.219C535.775 247.193 535.688 247.173 535.602 247.159L528.172 246.149C527.973 246.123 527.77 246.13 527.572 246.169C519.882 247.689 512.612 246.919 508.812 255.499C508.59 255.995 508.524 256.549 508.622 257.089C509.142 259.896 510.045 261.899 511.332 263.099C515.172 266.699 521.552 267.769 525.542 268.639C533.642 270.399 539.245 271.723 542.352 272.609C549.562 274.669 555.312 278.549 556.372 286.129C556.585 287.663 556.398 289.449 555.812 291.489C554.512 296.036 551.538 299.369 546.892 301.489C543.725 302.936 540.822 303.816 538.182 304.129C522.442 305.989 503.132 304.419 501.072 285.659Z" fill="white"/>
<path d="M675.248 303.69C675.251 303.751 675.241 303.811 675.22 303.868C675.199 303.925 675.166 303.977 675.124 304.021C675.082 304.065 675.031 304.1 674.975 304.124C674.919 304.148 674.859 304.16 674.798 304.16H669.238C668.994 304.16 668.755 304.091 668.546 303.963C668.338 303.834 668.169 303.649 668.058 303.43L660.728 288.75C660.578 288.452 660.348 288.202 660.064 288.027C659.78 287.852 659.452 287.76 659.118 287.76H623.428C623.28 287.76 623.134 287.8 623.008 287.876C622.881 287.952 622.777 288.06 622.708 288.19L614.708 303.1C614.445 303.591 614.025 303.981 613.515 304.207C613.004 304.434 612.432 304.484 611.888 304.35L611.688 304.3C611.452 304.24 611.232 304.127 611.045 303.969C610.859 303.81 610.711 303.612 610.612 303.387C610.514 303.162 610.468 302.918 610.478 302.673C610.488 302.427 610.553 302.187 610.668 301.97C629.235 267.21 639.792 247.457 642.338 242.71C642.525 242.37 642.725 242.167 642.938 242.1C643.387 241.967 643.869 242 644.301 242.194C644.733 242.388 645.087 242.73 645.298 243.16C648.552 249.773 658.398 269.433 674.838 302.14C675.092 302.647 675.228 303.163 675.248 303.69ZM642.588 251.71C642.564 251.661 642.526 251.62 642.48 251.591C642.434 251.562 642.381 251.547 642.326 251.546C642.272 251.545 642.218 251.558 642.171 251.586C642.124 251.613 642.085 251.652 642.058 251.7L625.018 283.55C624.994 283.595 624.983 283.646 624.984 283.697C624.985 283.749 624.999 283.799 625.025 283.843C625.052 283.887 625.088 283.924 625.133 283.949C625.177 283.975 625.227 283.989 625.278 283.99H658.228C658.279 283.99 658.329 283.977 658.373 283.952C658.418 283.928 658.455 283.893 658.482 283.85C658.509 283.807 658.525 283.758 658.528 283.707C658.53 283.656 658.52 283.606 658.498 283.56L642.588 251.71Z" fill="white"/>
<path d="M279.331 247.801H253.551C253.376 247.801 253.208 247.732 253.084 247.608C252.96 247.484 252.891 247.316 252.891 247.141V243.781C252.891 243.606 252.96 243.438 253.084 243.314C253.208 243.191 253.376 243.121 253.551 243.121H311.851C312.026 243.121 312.194 243.191 312.317 243.314C312.441 243.438 312.511 243.606 312.511 243.781V247.131C312.511 247.306 312.441 247.474 312.317 247.598C312.194 247.722 312.026 247.791 311.851 247.791H286.761C286.674 247.791 286.588 247.808 286.508 247.841C286.428 247.875 286.355 247.923 286.294 247.984C286.233 248.046 286.184 248.118 286.151 248.199C286.118 248.279 286.101 248.364 286.101 248.451V303.501C286.101 303.676 286.031 303.844 285.907 303.968C285.784 304.092 285.616 304.161 285.441 304.161H280.651C280.476 304.161 280.308 304.092 280.184 303.968C280.06 303.844 279.991 303.676 279.991 303.501V248.461C279.991 248.286 279.921 248.118 279.797 247.994C279.674 247.871 279.506 247.801 279.331 247.801Z" fill="white"/>
<path d="M347.452 269.26C359.938 269.26 367.048 269.23 368.782 269.17C368.943 269.165 369.095 269.097 369.207 268.981C369.319 268.866 369.382 268.711 369.382 268.55V243.73C369.382 243.56 369.449 243.397 369.569 243.277C369.689 243.157 369.852 243.09 370.022 243.09H375.012C375.176 243.09 375.334 243.155 375.45 243.271C375.566 243.388 375.632 243.545 375.632 243.71V303.11C375.632 303.246 375.605 303.382 375.553 303.508C375.5 303.634 375.424 303.749 375.327 303.845C375.231 303.942 375.116 304.018 374.99 304.071C374.864 304.123 374.728 304.15 374.592 304.15H370.362C370.104 304.15 369.858 304.048 369.676 303.866C369.494 303.684 369.392 303.437 369.392 303.18V273.52C369.392 273.413 369.353 273.311 369.283 273.233C369.212 273.155 369.115 273.107 369.012 273.1C368.352 273.04 361.165 273.013 347.452 273.02C333.745 273.02 326.558 273.053 325.892 273.12C325.79 273.127 325.694 273.173 325.624 273.249C325.554 273.325 325.514 273.425 325.512 273.53L325.532 303.19C325.532 303.317 325.507 303.443 325.458 303.561C325.409 303.679 325.338 303.786 325.248 303.876C325.158 303.966 325.051 304.037 324.933 304.086C324.815 304.135 324.689 304.16 324.562 304.16L320.332 304.17C320.056 304.17 319.791 304.06 319.596 303.865C319.401 303.67 319.292 303.406 319.292 303.13L319.262 243.73C319.262 243.567 319.326 243.411 319.44 243.295C319.554 243.179 319.709 243.112 319.872 243.11L324.862 243.1C324.947 243.098 325.031 243.114 325.11 243.146C325.189 243.177 325.26 243.224 325.321 243.284C325.381 243.343 325.429 243.414 325.462 243.493C325.495 243.571 325.512 243.655 325.512 243.74L325.522 268.56C325.519 268.723 325.58 268.88 325.693 268.998C325.805 269.116 325.959 269.185 326.122 269.19C327.855 269.243 334.965 269.266 347.452 269.26Z" fill="white"/>
<path d="M463.175 243.076L458.015 243.085C457.662 243.085 457.376 243.372 457.376 243.726L457.48 303.506C457.481 303.859 457.768 304.145 458.122 304.145L463.282 304.136C463.635 304.135 463.921 303.848 463.92 303.495L463.816 243.715C463.815 243.361 463.528 243.075 463.175 243.076Z" fill="white"/>
<path d="M573.47 303.541C573.47 303.698 573.407 303.848 573.297 303.958C573.186 304.069 573.036 304.131 572.88 304.131H567.91C567.74 304.131 567.577 304.065 567.457 303.947C567.337 303.828 567.27 303.668 567.27 303.501V243.701C567.27 243.547 567.331 243.4 567.439 243.291C567.548 243.182 567.696 243.121 567.85 243.121C578.57 243.128 585.886 243.131 589.8 243.131C591.113 243.131 592.836 243.281 594.97 243.581C600.02 244.301 602.83 244.751 606.81 246.951C613.93 250.881 615.89 257.521 615 265.251C613.72 276.411 601.96 280.331 592.39 280.281C586.69 280.254 580.59 280.258 574.09 280.291C573.925 280.291 573.767 280.356 573.651 280.473C573.535 280.589 573.47 280.747 573.47 280.911V303.541ZM573.42 248.521L573.56 275.581C573.56 275.769 573.634 275.95 573.768 276.083C573.901 276.216 574.081 276.291 574.27 276.291L593.24 276.191C597.371 276.169 601.326 274.752 604.235 272.25C607.144 269.748 608.768 266.368 608.75 262.851L608.74 260.891C608.722 257.375 607.064 254.012 604.131 251.541C601.198 249.069 597.23 247.692 593.1 247.711L574.13 247.811C574.036 247.811 573.944 247.829 573.858 247.865C573.772 247.901 573.693 247.953 573.628 248.019C573.562 248.085 573.509 248.163 573.474 248.249C573.438 248.336 573.42 248.428 573.42 248.521Z" fill="white"/>
<path d="M224.192 263.04C201.46 263.04 183.032 280.752 183.032 302.6C183.032 324.449 201.46 342.16 224.192 342.16C246.924 342.16 265.352 324.449 265.352 302.6C265.352 280.752 246.924 263.04 224.192 263.04Z" fill="#6C9549"/>
<path d="M718.19 281.051C718.223 281.017 718.263 280.992 718.308 280.977C718.353 280.962 718.401 280.957 718.447 280.964C718.494 280.971 718.539 280.989 718.577 281.016C718.616 281.043 718.647 281.079 718.669 281.121L718.979 281.731C719.012 281.792 719.024 281.861 719.015 281.929C719.006 281.997 718.976 282.061 718.93 282.111C708.923 292.498 700.879 300.441 694.799 305.941C691.099 309.295 686.866 312.885 682.099 316.711C678.006 319.998 670.953 324.775 660.94 331.041C650.006 337.881 636.126 344.105 619.299 349.711C617.373 350.351 611.5 351.865 601.68 354.251C589.26 357.265 576.003 359.011 561.909 359.491C545.629 360.045 529.816 359.871 514.469 358.971C503.189 358.321 489.279 356.541 475.159 355.071C475.046 355.058 469.819 354.405 459.479 353.111C435.513 350.105 417.319 348.015 404.899 346.841C401.799 346.548 392.649 345.881 377.449 344.841C367.519 344.161 358.239 344.721 350.249 343.721C346.929 343.311 343.969 344.181 340.529 344.191C318.336 344.291 296.093 346.561 273.799 351.001C267.009 352.351 260.389 354.371 253.289 355.641C253.206 355.654 253.12 355.643 253.043 355.609C252.966 355.575 252.9 355.519 252.853 355.448C252.807 355.377 252.782 355.295 252.781 355.21C252.781 355.126 252.804 355.043 252.849 354.971C253.443 354.045 254.049 353.325 254.669 352.811C266.449 343.111 279.033 335.438 292.419 329.791C302.853 325.385 314.649 321.871 327.809 319.251C335.069 317.801 343.289 317.241 350.369 316.391C356.189 315.691 361.726 315.371 366.979 315.431C376.489 315.531 386.779 315.111 396.909 316.011C415.849 317.691 428.339 318.541 445.519 320.851C462.379 323.111 468.279 323.721 485.099 326.171C503.119 328.791 520.286 330.858 536.599 332.371C545.119 333.165 555.166 333.751 566.74 334.131C572.04 334.301 577.499 335.281 582.409 334.811C586.376 334.425 589.823 334.201 592.75 334.141C600.69 333.971 604.82 333.201 612.87 332.661C615.55 332.488 618.809 332.061 622.649 331.381C635.923 329.041 648.799 325.468 661.279 320.661C665.239 319.135 670.926 316.401 678.339 312.461C683.579 309.681 690.993 304.788 700.579 297.781C707.269 292.891 713.17 286.311 718.19 281.051Z" fill="#6C9549"/>
</svg>
