<svg width="870" height="470" viewBox="0 0 870 470" fill="none" xmlns="http://www.w3.org/2000/svg">
<path d="M0.0898438 235.279C0.0898438 173.065 45.8832 113.398 127.396 69.4061C208.909 25.4138 319.463 0.699219 434.74 0.699219C550.016 0.699219 660.571 25.4138 742.084 69.4061C823.596 113.398 869.39 173.065 869.39 235.279C869.39 297.494 823.596 357.16 742.084 401.152C660.571 445.145 550.016 469.859 434.74 469.859C319.463 469.859 208.909 445.145 127.396 401.152C45.8832 357.16 0.0898438 297.494 0.0898438 235.279ZM862.68 235.259C862.68 174.75 817.591 116.719 737.333 73.9328C657.075 31.1464 548.222 7.10922 434.72 7.10922C378.519 7.10922 322.869 13.0105 270.947 24.4761C219.024 35.9417 171.846 52.7471 132.106 73.9328C51.8484 116.719 6.75984 174.75 6.75984 235.259C6.75984 295.768 51.8484 353.799 132.106 396.586C171.846 417.771 219.024 434.577 270.947 446.042C322.869 457.508 378.519 463.409 434.72 463.409C548.222 463.409 657.075 439.372 737.333 396.586C817.591 353.799 862.68 295.768 862.68 235.259Z" fill="#1A1A1A"/>
<path d="M541.929 79.6383C542.215 79.6317 542.649 79.5883 543.229 79.5083C550.909 78.435 557.565 77.515 563.199 76.7483C573.572 75.3417 585.169 74.695 597.989 74.8083C603.339 74.8583 608.559 75.8183 613.829 75.6883C616.029 75.635 618.142 75.6916 620.169 75.8583C664.542 79.5716 705.795 91.735 743.929 112.348C756.675 119.235 769.509 127.568 782.429 137.348C796.489 148.002 808.445 160.372 818.299 174.458C820.852 178.112 823.802 183.415 827.149 190.368C831.962 200.355 834.979 211.155 836.199 222.768C837.519 235.298 834.849 248.988 830.179 260.718C824.885 274.038 817.575 286.212 808.249 297.238C789.759 319.078 766.509 336.948 742.999 352.328C737.365 356.015 731.119 359.898 724.259 363.978C697.812 379.698 670.055 393.112 640.989 404.218C629.789 408.492 615.545 413.318 598.259 418.698C583.012 423.438 564.369 428.035 542.329 432.488C517.402 437.528 490.149 441.035 460.569 443.008C441.799 444.258 425.169 443.848 403.189 443.858C397.379 443.868 391.969 443.278 386.259 443.158C378.012 442.978 369.509 442.448 360.749 441.568C341.879 439.678 329.789 438.788 313.529 436.288C301.962 434.508 295.642 433.532 294.569 433.358C287.329 432.188 281.769 430.578 274.379 429.348C267.819 428.258 260.909 426.348 253.569 424.638C233.589 419.985 212.865 413.712 191.399 405.818C173.139 399.098 154.912 390.828 136.719 381.008C120.452 372.222 105.062 361.955 90.5487 350.208C83.9087 344.848 77.3487 338.378 70.8587 331.658C53.1287 313.328 39.3887 291.248 33.5587 266.728C32.9521 264.188 32.0221 258.045 30.7687 248.298C30.1354 243.412 30.0954 238.708 30.6487 234.188C31.9487 223.615 33.2387 215.972 34.5187 211.258C37.6921 199.592 42.5054 188.392 48.9587 177.658C57.3521 163.692 67.5087 151.018 79.4287 139.638C98.6987 121.258 120.889 105.768 143.889 93.1483C161.309 83.5883 179.642 75.1017 198.889 67.6883C228.935 56.1217 259.755 47.0417 291.349 40.4483C299.029 38.8483 306.179 37.7883 313.649 36.0183C316.062 35.445 319.049 34.9217 322.609 34.4483C324.855 34.1483 332.725 32.9983 346.219 30.9983C359.059 29.0883 367.189 28.6383 381.459 27.1483C394.149 25.8283 407.669 25.3583 420.239 24.6783C433.079 23.9783 445.469 24.4383 458.859 24.3383C470.129 24.2583 481.189 24.9783 493.479 25.5183C498.065 25.7183 502.675 26.015 507.309 26.4083C528.615 28.2017 550.349 30.8117 572.509 34.2383C577.402 34.9983 581.842 35.8483 585.829 36.7883C591.289 38.0783 596.619 38.7683 603.609 40.3083C615.149 42.855 627.405 45.915 640.379 49.4883C640.537 49.5311 640.685 49.6048 640.814 49.705C640.943 49.8052 641.051 49.93 641.132 50.0722C641.213 50.2144 641.265 50.3713 641.285 50.5336C641.305 50.696 641.293 50.8607 641.249 51.0183L638.909 59.5683C638.84 59.8212 638.721 60.0576 638.559 60.2637C638.397 60.4697 638.195 60.6413 637.966 60.7681C637.737 60.8949 637.484 60.9744 637.224 61.0019C636.963 61.0294 636.7 61.0044 636.449 60.9283C625.575 57.655 615.425 54.9617 605.999 52.8483C585.585 48.2817 569.512 45.1617 557.779 43.4883C547.649 42.0483 528.279 39.2783 514.019 38.2283C494.259 36.7817 480.499 35.885 472.739 35.5383C464.199 35.1517 450.209 35.025 430.769 35.1583C425.829 35.1917 420.575 35.365 415.009 35.6783C395.362 36.7717 379.175 37.9517 366.449 39.2183C319.509 43.8983 272.329 53.4183 227.069 68.0983C201.055 76.5317 175.875 87.175 151.529 100.028C131.915 110.388 113.822 122.472 97.2487 136.278C89.4621 142.758 82.9521 148.902 77.7187 154.708C67.6587 165.868 59.7487 176.378 52.8087 189.338C44.4154 205.038 39.8221 222.048 39.0287 240.368C38.9221 242.835 39.0154 245.098 39.3087 247.158C39.6687 249.685 39.9521 251.942 40.1587 253.928C41.1654 263.462 43.7387 273.038 47.8787 282.658C63.6487 319.268 95.1287 346.618 128.499 366.968C167.739 390.898 212.239 406.968 257.909 418.328C261.235 419.162 265.145 420.032 269.639 420.938C274.789 421.978 279.909 423.468 285.329 424.378C289.875 425.145 294.199 425.935 298.299 426.748C308.759 428.838 322.649 430.408 330.059 431.538C336.579 432.538 342.849 433.288 348.869 433.788C364.462 435.088 377.342 436.008 387.509 436.548C393.862 436.882 397.305 437.068 397.839 437.108C409.439 437.998 423.599 437.568 431.509 437.588C441.369 437.615 447.399 437.488 449.599 437.208C454.629 436.578 460.669 437.108 465.229 436.338C469.359 435.638 472.899 435.958 477.379 435.418C485.479 434.438 497.779 433.748 508.819 432.068C522.039 430.055 530.452 428.728 534.059 428.088C541.585 426.742 551.062 424.782 562.489 422.208C611.335 411.208 658.589 393.628 704.249 369.468C720.829 360.695 738.815 349.515 758.209 335.928C774.769 324.322 789.965 310.865 803.799 295.558C814.852 283.332 822.969 269.548 828.149 254.208C834.309 235.982 833.969 217.928 827.129 200.048C821.309 184.822 813.222 171.658 802.869 160.558C789.659 146.408 773.539 134.018 756.769 123.518C741.395 113.898 725.179 105.695 708.119 98.9083C703.812 97.195 697.839 95.0783 690.199 92.5583C683.152 90.2383 677.065 88.4383 671.939 87.1583C654.859 82.905 637.675 79.9616 620.389 78.3283C613.635 77.6883 606.699 77.4217 599.579 77.5283C586.145 77.7217 579.209 77.825 578.769 77.8383C571.222 78.0983 558.995 79.4217 542.089 81.8083C542 81.8212 541.909 81.8148 541.822 81.7896C541.736 81.7644 541.656 81.7209 541.588 81.6622C541.519 81.6034 541.465 81.5307 541.427 81.449C541.389 81.3672 541.369 81.2784 541.369 81.1883V80.2083C541.369 80.0589 541.427 79.9154 541.532 79.8088C541.637 79.7022 541.779 79.641 541.929 79.6383Z" fill="#DE4876"/>
<path d="M219.741 158.38C217.607 160.48 215.087 161.91 212.181 162.67C205.591 164.41 200.081 165 193.711 162.82C185.497 160 177.867 155.45 170.821 149.17C170.641 149.012 170.496 148.817 170.395 148.6C170.294 148.382 170.239 148.146 170.235 147.906C170.23 147.666 170.275 147.428 170.367 147.207C170.46 146.985 170.597 146.786 170.771 146.62C177.411 140.253 184.534 135.713 192.141 133C192.205 132.977 192.264 132.941 192.314 132.894C192.363 132.847 192.403 132.79 192.429 132.727C192.455 132.664 192.468 132.596 192.467 132.528C192.465 132.459 192.45 132.392 192.421 132.33C189.747 126.723 188.001 121.703 187.181 117.27C186.581 113.997 185.981 109.573 185.381 104C185.355 103.782 185.379 103.561 185.448 103.353C185.518 103.145 185.632 102.954 185.784 102.794C185.935 102.634 186.119 102.509 186.324 102.427C186.529 102.345 186.75 102.309 186.971 102.32C195.857 102.78 204.534 104.6 213.001 107.78C214.321 108.273 215.431 108.83 216.331 109.45C216.469 109.545 216.626 109.608 216.791 109.636C216.956 109.664 217.125 109.656 217.286 109.612C217.447 109.568 217.596 109.49 217.723 109.383C217.85 109.275 217.951 109.141 218.021 108.99C221.554 101.363 226.381 94.7968 232.501 89.2902C232.594 89.2055 232.705 89.142 232.825 89.1038C232.945 89.0656 233.072 89.0537 233.197 89.0689C233.322 89.0841 233.443 89.126 233.55 89.1917C233.658 89.2575 233.75 89.3456 233.821 89.4502C234.361 90.2568 235.807 91.9568 238.161 94.5501C241.621 98.3601 244.701 103.57 247.031 108.3C247.172 108.581 247.414 108.797 247.709 108.903C248.003 109.009 248.326 108.997 248.611 108.87C257.604 104.877 266.984 102.723 276.751 102.41C276.99 102.401 277.224 102.485 277.404 102.643C277.585 102.801 277.698 103.021 277.721 103.26C278.171 108.4 277.211 114.14 276.431 118.54C275.564 123.44 273.767 128.04 271.041 132.34C271.013 132.386 270.994 132.438 270.987 132.491C270.98 132.544 270.984 132.598 270.999 132.65C271.015 132.701 271.04 132.748 271.075 132.787C271.11 132.827 271.153 132.859 271.201 132.88C278.834 136.353 285.901 140.967 292.401 146.72C292.571 146.87 292.707 147.055 292.799 147.262C292.892 147.469 292.939 147.693 292.937 147.92C292.935 148.146 292.884 148.37 292.788 148.576C292.692 148.781 292.553 148.963 292.381 149.11C287.967 152.863 283.001 156.323 277.481 159.49C266.861 165.577 256.264 165.927 245.691 160.54C242.621 158.98 238.291 155.6 236.281 153.7C233.394 150.96 229.804 147.403 225.511 143.03C221.631 139.08 214.621 135.12 208.421 134.87C204.587 134.71 201.361 135.15 198.741 136.19C192.741 138.58 186.281 142.62 180.971 147.21C180.87 147.297 180.79 147.405 180.737 147.526C180.684 147.648 180.659 147.78 180.664 147.913C180.669 148.047 180.703 148.177 180.765 148.296C180.827 148.415 180.914 148.519 181.021 148.6C185.581 152.1 189.927 155.043 194.061 157.43C201.861 161.93 211.731 162.91 219.471 158.04C219.516 158.015 219.569 158.006 219.62 158.017C219.672 158.027 219.717 158.055 219.75 158.096C219.782 158.136 219.799 158.187 219.797 158.24C219.796 158.292 219.776 158.342 219.741 158.38ZM233.441 146.61L233.951 145.9C234.256 145.475 234.619 145.092 235.031 144.76C245.311 136.58 249.431 124.98 242.751 112.97C240.297 108.557 237.034 104.197 232.961 99.8902C232.883 99.8056 232.787 99.7402 232.68 99.699C232.573 99.6578 232.457 99.6419 232.342 99.6525C232.227 99.6631 232.116 99.7 232.017 99.7602C231.918 99.8205 231.834 99.9026 231.771 100C230.617 101.787 229.221 103.543 227.581 105.27C227.095 105.782 226.666 106.338 226.301 106.93C225.114 108.863 223.794 110.837 222.341 112.85C221.221 114.403 219.961 117.46 218.561 122.02C217.131 126.69 220.021 132.98 222.531 137.05C222.604 137.156 222.688 137.254 222.781 137.34L232.631 146.69C232.687 146.744 232.755 146.784 232.829 146.81C232.902 146.835 232.981 146.844 233.058 146.837C233.135 146.829 233.209 146.805 233.275 146.766C233.341 146.727 233.397 146.674 233.441 146.61ZM219.401 134.27C217.374 130.497 215.994 126.687 215.261 122.84C214.771 120.26 215.091 118.67 215.621 115.46C215.663 115.199 215.613 114.932 215.477 114.705C215.342 114.478 215.13 114.306 214.881 114.22C208.174 111.873 201.327 110.497 194.341 110.09C194.248 110.085 194.156 110.098 194.069 110.13C193.982 110.161 193.902 110.21 193.834 110.274C193.766 110.337 193.711 110.414 193.673 110.499C193.634 110.584 193.613 110.676 193.611 110.77C193.464 117.557 194.631 123.91 197.111 129.83C197.252 130.16 197.484 130.443 197.779 130.647C198.075 130.85 198.422 130.966 198.781 130.98C201.371 131.07 205.671 130.83 208.451 131.47C211.764 132.243 215.134 133.467 218.561 135.14C218.681 135.196 218.816 135.213 218.947 135.189C219.078 135.164 219.198 135.1 219.29 135.004C219.382 134.908 219.443 134.786 219.463 134.655C219.482 134.523 219.461 134.389 219.401 134.27ZM247.441 134.59L255.531 131.19C256.045 130.972 256.596 130.86 257.151 130.86H265.921C266.052 130.861 266.18 130.819 266.288 130.742C266.396 130.665 266.477 130.556 266.521 130.43C268.754 123.917 270.094 117.5 270.541 111.18C270.549 111.054 270.531 110.928 270.488 110.81C270.444 110.692 270.377 110.584 270.289 110.493C270.201 110.403 270.096 110.332 269.979 110.285C269.862 110.238 269.736 110.216 269.611 110.22C264.577 110.467 258.311 111.53 250.811 113.41C250.422 113.507 250.082 113.741 249.853 114.07C249.623 114.399 249.519 114.8 249.561 115.2C250.181 121.16 250.091 128.16 246.771 133.84C246.715 133.937 246.692 134.048 246.703 134.159C246.715 134.269 246.761 134.374 246.835 134.457C246.909 134.54 247.008 134.597 247.116 134.621C247.225 134.645 247.338 134.634 247.441 134.59ZM282.031 147.49C281.824 147.11 281.651 146.86 281.511 146.74C277.557 143.453 273.117 140.487 268.191 137.84C260.561 133.73 254.361 133.03 246.401 136.38C245.484 136.764 244.708 137.428 244.181 138.28C242.174 141.507 239.294 144.6 235.541 147.56C235.387 147.684 235.269 147.846 235.201 148.029C235.132 148.212 235.115 148.409 235.151 148.6C235.344 149.573 236.027 150.533 237.201 151.48C244.101 157.06 249.851 161.67 258.611 160.95C259.129 160.91 259.639 160.81 260.131 160.65C267.871 158.223 275.127 154.053 281.901 148.14C281.994 148.062 282.058 147.954 282.081 147.836C282.105 147.718 282.087 147.595 282.031 147.49Z" fill="#DE4876"/>
<path d="M150.811 209.422C150.851 209.655 150.997 210.682 151.251 212.502C153.191 226.432 170.771 227.732 181.431 226.412C185.181 225.952 188.811 224.302 191.341 222.722C193.834 221.168 195.341 218.628 195.861 215.102C197.461 204.312 183.561 201.172 175.751 199.642C169.311 198.388 165.087 197.452 163.081 196.832C155.661 194.532 150.431 193.092 145.791 188.162C141.181 183.262 141.421 174.172 146.031 169.422C150.891 164.422 156.761 162.852 163.681 161.732C168.511 160.942 173.261 161.272 178.091 161.142C179.591 161.102 181.511 161.308 183.851 161.762C189.041 162.772 192.631 163.282 196.491 165.812C201.171 168.872 204.981 173.562 205.821 179.702C205.836 179.816 205.827 179.932 205.794 180.043C205.761 180.154 205.705 180.256 205.629 180.343C205.554 180.43 205.46 180.5 205.355 180.548C205.25 180.596 205.136 180.621 205.021 180.622H196.861C196.598 180.622 196.343 180.533 196.137 180.37C195.93 180.207 195.783 179.979 195.721 179.722C194.021 172.882 189.484 168.762 182.111 167.362C173.991 165.822 158.911 165.232 154.751 174.442C152.051 180.432 156.401 184.092 161.381 186.142C173.751 191.252 187.831 190.722 199.651 197.712C205.881 201.382 208.101 207.302 207.651 214.472C207.011 224.832 195.391 230.062 186.661 231.392C177.547 232.785 168.524 232.538 159.591 230.652C158.251 230.372 155.814 229.312 152.281 227.472C145.654 224.012 141.794 218.362 140.701 210.522C140.673 210.325 140.689 210.124 140.746 209.934C140.803 209.743 140.9 209.567 141.031 209.417C141.161 209.267 141.323 209.147 141.504 209.065C141.685 208.983 141.882 208.941 142.081 208.942H150.231C150.368 208.941 150.501 208.989 150.607 209.077C150.713 209.165 150.785 209.287 150.811 209.422Z" fill="#1A1A1A"/>
<path d="M325.261 231.47L314.311 231.44C314.209 231.44 314.109 231.412 314.022 231.359C313.935 231.306 313.866 231.23 313.821 231.14L305.461 214.39C305.353 214.171 305.185 213.986 304.976 213.857C304.768 213.728 304.527 213.66 304.281 213.66L266.191 213.64C265.719 213.638 265.255 213.769 264.852 214.018C264.45 214.267 264.123 214.624 263.911 215.05L256.331 230.2C256.133 230.596 255.828 230.93 255.452 231.163C255.076 231.396 254.643 231.519 254.201 231.52L248.731 231.51C248.565 231.51 248.401 231.467 248.257 231.384C248.112 231.301 247.992 231.182 247.907 231.038C247.822 230.893 247.776 230.729 247.774 230.561C247.771 230.393 247.811 230.227 247.891 230.08L284.161 162.23C284.334 161.912 284.588 161.647 284.898 161.462C285.208 161.277 285.561 161.18 285.921 161.18L290.611 161.19C290.815 161.189 291.015 161.246 291.188 161.354C291.362 161.462 291.501 161.616 291.591 161.8L325.921 230.42C325.975 230.531 326.001 230.655 325.994 230.779C325.987 230.903 325.949 231.023 325.883 231.128C325.817 231.233 325.725 231.32 325.616 231.38C325.507 231.439 325.385 231.47 325.261 231.47ZM286.051 174.68C286.02 174.616 285.973 174.562 285.913 174.524C285.854 174.486 285.785 174.465 285.714 174.464C285.644 174.463 285.574 174.482 285.513 174.518C285.453 174.555 285.404 174.607 285.371 174.67L267.691 207.72C267.66 207.777 267.644 207.842 267.646 207.907C267.647 207.972 267.665 208.036 267.698 208.093C267.731 208.149 267.779 208.196 267.835 208.228C267.892 208.261 267.956 208.279 268.021 208.28H302.231C302.296 208.28 302.36 208.263 302.416 208.232C302.473 208.2 302.52 208.155 302.554 208.1C302.588 208.044 302.608 207.981 302.611 207.917C302.614 207.852 302.6 207.788 302.571 207.73L286.051 174.68Z" fill="#1A1A1A"/>
<path d="M549.431 213.609H510.271C510.125 213.608 509.982 213.646 509.857 213.72C509.732 213.794 509.63 213.901 509.561 214.029L500.491 231.009C500.422 231.137 500.319 231.243 500.194 231.317C500.069 231.391 499.926 231.43 499.781 231.429H493.361C493.222 231.43 493.085 231.395 492.964 231.327C492.842 231.259 492.741 231.16 492.669 231.041C492.598 230.922 492.558 230.786 492.555 230.647C492.552 230.508 492.585 230.371 492.651 230.249L529.361 161.639C529.43 161.511 529.532 161.404 529.657 161.33C529.782 161.256 529.925 161.218 530.071 161.219H535.671C535.818 161.22 535.962 161.261 536.088 161.339C536.213 161.416 536.314 161.527 536.381 161.659L570.671 230.269C570.732 230.39 570.761 230.526 570.756 230.662C570.75 230.798 570.71 230.93 570.639 231.046C570.568 231.163 570.468 231.259 570.349 231.326C570.231 231.392 570.097 231.428 569.961 231.429H559.311C559.163 231.428 559.019 231.386 558.894 231.309C558.768 231.231 558.667 231.12 558.601 230.989L550.141 214.049C550.074 213.917 549.973 213.806 549.848 213.729C549.722 213.651 549.578 213.61 549.431 213.609ZM530.871 174.619C530.842 174.562 530.798 174.514 530.744 174.48C530.69 174.446 530.628 174.427 530.564 174.426C530.5 174.425 530.437 174.442 530.382 174.474C530.327 174.506 530.281 174.553 530.251 174.609L512.521 207.749C512.491 207.802 512.476 207.861 512.477 207.922C512.477 207.982 512.493 208.041 512.523 208.094C512.554 208.146 512.597 208.19 512.649 208.22C512.701 208.251 512.76 208.268 512.821 208.269H547.131C547.191 208.27 547.252 208.256 547.305 208.227C547.359 208.199 547.404 208.156 547.436 208.105C547.468 208.053 547.487 207.994 547.489 207.934C547.492 207.873 547.479 207.813 547.451 207.759L530.871 174.619Z" fill="#1A1A1A"/>
<path d="M627.869 180.59C627.792 180.59 627.717 180.562 627.66 180.51C627.602 180.458 627.566 180.387 627.559 180.31C626.989 174.78 624.039 172.08 620.019 169.36C618.759 168.513 617.202 167.9 615.349 167.52C609.269 166.28 603.229 166.17 597.229 167.19C592.499 168 587.059 171.18 585.959 176.22C585.139 179.96 588.409 183.63 591.509 185.25C595.899 187.52 600.339 188.89 605.949 189.8C611.856 190.767 618.499 192.463 625.879 194.89C636.259 198.31 643.639 208.85 638.089 219.67C636.242 223.263 633.462 225.987 629.749 227.84C624.262 230.567 618.179 232.01 611.499 232.17C594.559 232.56 575.649 230.26 572.529 209.85C572.512 209.74 572.518 209.628 572.548 209.521C572.579 209.414 572.632 209.315 572.704 209.23C572.776 209.145 572.866 209.077 572.967 209.031C573.068 208.984 573.178 208.96 573.289 208.96H581.589C581.821 208.96 582.046 209.039 582.226 209.184C582.406 209.33 582.531 209.533 582.579 209.76C584.012 216.94 586.666 221.433 590.539 223.24C593.559 224.653 595.776 225.51 597.189 225.81C604.159 227.31 616.239 227.75 622.489 223.33C628.356 219.177 629.656 213.96 626.389 207.68C624.299 203.64 612.009 200.33 608.149 199.62C604.449 198.94 599.879 198.35 595.369 196.9C588.239 194.6 575.409 191.43 575.059 182.05C574.839 176.29 574.679 171.18 579.799 167.51C584.319 164.26 588.899 162.77 595.099 161.79C598.259 161.29 601.042 161.093 603.449 161.2C607.089 161.36 610.859 161.04 614.809 161.53C621.489 162.36 627.749 164.43 632.929 169.25C635.736 171.863 637.319 175.543 637.679 180.29C637.683 180.328 637.679 180.366 637.668 180.403C637.656 180.439 637.637 180.472 637.611 180.501C637.586 180.529 637.555 180.552 637.52 180.567C637.485 180.582 637.447 180.59 637.409 180.59H627.869Z" fill="#1A1A1A"/>
<path d="M402.669 176.661C402.669 176.586 402.644 176.512 402.597 176.453C402.55 176.394 402.484 176.353 402.41 176.337C402.337 176.32 402.26 176.33 402.192 176.363C402.124 176.397 402.07 176.453 402.039 176.521C395.899 189.028 388.146 205.121 378.779 224.801C376.409 229.771 375.949 232.821 370.349 231.271C370.147 231.214 369.958 231.116 369.795 230.981C369.632 230.847 369.497 230.681 369.399 230.491L341.529 176.061C341.504 176.018 341.465 175.983 341.419 175.963C341.372 175.944 341.321 175.94 341.272 175.952C341.223 175.965 341.18 175.993 341.148 176.033C341.117 176.072 341.1 176.121 341.099 176.171V231.181C341.099 231.25 341.07 231.317 341.02 231.365C340.969 231.414 340.9 231.441 340.829 231.441H334.159C334.085 231.441 334.013 231.412 333.961 231.359C333.908 231.307 333.879 231.236 333.879 231.161V162.741C333.879 162.54 333.959 162.347 334.102 162.204C334.244 162.061 334.437 161.981 334.639 161.981H345.159C345.486 161.982 345.808 162.066 346.093 162.225C346.379 162.384 346.618 162.614 346.789 162.891C347.989 164.881 349.219 166.621 350.079 168.381C352.919 174.135 360.972 190.261 374.239 216.761C374.279 216.839 374.34 216.904 374.414 216.948C374.489 216.993 374.575 217.017 374.662 217.016C374.749 217.014 374.834 216.989 374.908 216.943C374.982 216.896 375.041 216.83 375.079 216.751L400.859 163.241C401.047 162.851 401.342 162.523 401.71 162.293C402.078 162.063 402.504 161.941 402.939 161.941H413.029C413.199 161.941 413.361 162.009 413.481 162.129C413.601 162.249 413.669 162.412 413.669 162.581V231.051C413.669 231.107 413.658 231.161 413.638 231.212C413.617 231.263 413.587 231.309 413.549 231.348C413.511 231.387 413.466 231.418 413.416 231.439C413.366 231.461 413.313 231.471 413.259 231.471H403.309C403.139 231.471 402.976 231.403 402.856 231.281C402.736 231.159 402.669 230.994 402.669 230.821V176.661Z" fill="#1A1A1A"/>
<path d="M440.5 226.091H488.65C488.742 226.091 488.833 226.109 488.918 226.145C489.003 226.18 489.08 226.231 489.145 226.296C489.21 226.361 489.262 226.438 489.297 226.523C489.332 226.608 489.35 226.699 489.35 226.791V230.741C489.35 230.833 489.332 230.924 489.297 231.009C489.262 231.094 489.21 231.171 489.145 231.236C489.08 231.301 489.003 231.353 488.918 231.388C488.833 231.423 488.742 231.441 488.65 231.441H429.02C428.835 231.441 428.657 231.368 428.525 231.236C428.394 231.105 428.32 230.927 428.32 230.741V162.731C428.32 162.639 428.338 162.548 428.374 162.463C428.409 162.378 428.46 162.301 428.525 162.236C428.59 162.171 428.668 162.12 428.752 162.085C428.837 162.049 428.928 162.031 429.02 162.031H488.66C488.752 162.031 488.843 162.049 488.928 162.085C489.013 162.12 489.09 162.171 489.155 162.236C489.22 162.301 489.272 162.378 489.307 162.463C489.342 162.548 489.36 162.639 489.36 162.731V166.581C489.36 166.767 489.287 166.945 489.155 167.076C489.024 167.208 488.846 167.281 488.66 167.281H440.5C440.408 167.281 440.317 167.299 440.232 167.335C440.147 167.37 440.07 167.421 440.005 167.486C439.94 167.551 439.889 167.628 439.854 167.713C439.818 167.798 439.8 167.889 439.8 167.981V190.451C439.8 190.637 439.874 190.815 440.005 190.946C440.137 191.078 440.315 191.151 440.5 191.151H483.3C483.486 191.151 483.664 191.225 483.795 191.356C483.927 191.488 484 191.666 484 191.851V195.821C484 196.007 483.927 196.185 483.795 196.316C483.664 196.447 483.486 196.521 483.3 196.521H440.5C440.315 196.521 440.137 196.595 440.005 196.726C439.874 196.858 439.8 197.036 439.8 197.221V225.391C439.8 225.577 439.874 225.755 440.005 225.886C440.137 226.018 440.315 226.091 440.5 226.091Z" fill="#1A1A1A"/>
<path d="M664.53 196.52C664.432 196.52 664.335 196.539 664.245 196.577C664.154 196.614 664.072 196.669 664.003 196.737C663.935 196.806 663.88 196.888 663.844 196.978C663.807 197.067 663.789 197.163 663.79 197.26L663.83 225.37C663.83 225.561 663.905 225.744 664.038 225.879C664.171 226.014 664.352 226.09 664.54 226.09L712.2 226.06C712.499 226.06 712.786 226.177 712.999 226.387C713.213 226.596 713.335 226.881 713.34 227.18L713.4 230.34C713.402 230.483 713.375 230.624 713.321 230.756C713.267 230.889 713.188 231.009 713.088 231.11C712.987 231.211 712.868 231.292 712.736 231.347C712.604 231.402 712.463 231.43 712.32 231.43L652.81 231.42C652.683 231.42 652.561 231.369 652.471 231.279C652.381 231.189 652.33 231.067 652.33 230.94L652.32 162.35C652.32 162.257 652.358 162.168 652.426 162.103C652.493 162.037 652.585 162 652.68 162L712.34 162.09C712.588 162.09 712.826 162.187 713.005 162.36C713.184 162.533 713.29 162.77 713.3 163.02L713.42 166.39C713.424 166.5 713.406 166.61 713.367 166.713C713.327 166.816 713.268 166.91 713.191 166.989C713.114 167.069 713.023 167.132 712.921 167.175C712.82 167.218 712.711 167.24 712.6 167.24L664.73 167.34C664.481 167.34 664.242 167.438 664.066 167.612C663.889 167.787 663.79 168.023 663.79 168.27L663.81 190.53C663.81 190.69 663.873 190.844 663.985 190.958C664.098 191.072 664.25 191.137 664.41 191.14L707.11 191.17C707.334 191.17 707.549 191.258 707.708 191.415C707.867 191.573 707.958 191.786 707.96 192.01L708.03 195.63C708.032 195.746 708.01 195.862 707.966 195.97C707.923 196.078 707.858 196.176 707.776 196.259C707.694 196.342 707.597 196.407 707.489 196.452C707.382 196.497 707.267 196.52 707.15 196.52H664.53Z" fill="#1A1A1A"/>
<path d="M236.779 162.012L226.539 162.03C226.174 162.031 225.879 162.327 225.88 162.691L225.999 230.771C226 231.136 226.296 231.431 226.66 231.43L236.9 231.412C237.265 231.411 237.559 231.115 237.559 230.751L237.44 162.671C237.439 162.307 237.143 162.012 236.779 162.012Z" fill="#1A1A1A"/>
<path d="M777.119 267.932C769.539 266.562 762.759 267.882 755.769 267.982C749.662 268.062 742.849 269.089 735.329 271.062C731.469 272.072 727.319 272.512 723.299 274.352C723.286 274.358 723.269 274.362 723.249 274.362L722.749 274.372C722.655 274.375 722.562 274.35 722.482 274.3C722.403 274.25 722.34 274.177 722.302 274.091C722.265 274.004 722.254 273.909 722.271 273.816C722.288 273.724 722.332 273.639 722.399 273.572C725.325 270.532 728.302 268.055 731.329 266.142C734.399 264.202 734.959 262.572 735.579 259.542C735.885 258.029 736.432 254.635 737.219 249.362C738.509 240.682 737.809 231.502 737.629 222.712C737.634 222.646 737.613 222.58 737.569 222.529C737.526 222.479 737.465 222.447 737.399 222.442C737.332 222.437 737.267 222.458 737.216 222.501C737.165 222.544 737.134 222.606 737.129 222.672C736.662 224.972 736.429 226.825 736.429 228.232C736.455 239.592 735.075 251.269 732.289 263.262C732.195 263.649 732.122 263.882 732.069 263.962C731.962 264.121 731.821 264.254 731.656 264.351C731.491 264.448 731.306 264.505 731.115 264.52C730.924 264.534 730.733 264.505 730.555 264.434C730.377 264.364 730.217 264.253 730.089 264.112C721.339 254.352 716.939 243.182 719.729 230.482C720.809 225.555 723.062 220.389 726.489 214.982C729.802 209.742 733.199 205.205 736.679 201.372C736.743 201.301 736.822 201.245 736.911 201.21C737 201.174 737.095 201.159 737.191 201.166C737.286 201.172 737.379 201.201 737.461 201.249C737.544 201.297 737.615 201.363 737.669 201.442C742.622 208.582 745.902 216.212 747.509 224.332C748.809 230.919 748.822 237.205 747.549 243.192C746.255 249.259 743.739 255.025 739.999 260.492C739.961 260.545 739.943 260.608 739.945 260.672C739.948 260.736 739.972 260.798 740.013 260.848C740.055 260.898 740.111 260.934 740.175 260.951C740.239 260.968 740.307 260.965 740.369 260.942C749.509 257.152 759.409 255.312 769.739 256.502C780.659 257.755 790.859 261.089 800.339 266.502C800.488 266.588 800.614 266.709 800.705 266.855C800.797 267.002 800.851 267.168 800.863 267.34C800.874 267.512 800.844 267.684 800.773 267.841C800.703 267.999 800.595 268.136 800.459 268.242C788.969 277.172 776.949 286.972 762.509 288.332C749.015 289.605 736.935 286.062 726.269 277.702C725.849 277.369 725.585 277.109 725.479 276.922C725.418 276.814 725.383 276.694 725.377 276.57C725.371 276.447 725.393 276.323 725.442 276.21C725.492 276.097 725.567 275.996 725.662 275.917C725.756 275.837 725.868 275.781 725.989 275.752C742.669 271.679 759.705 269.149 777.099 268.162C777.129 268.162 777.16 268.15 777.183 268.128C777.207 268.107 777.222 268.077 777.225 268.047C777.227 268.016 777.218 267.987 777.198 267.966C777.178 267.944 777.149 267.932 777.119 267.932Z" fill="#6C9549"/>
<path d="M447.07 304.391C447.073 304.452 447.063 304.512 447.042 304.569C447.02 304.626 446.988 304.678 446.946 304.722C446.903 304.766 446.853 304.801 446.797 304.825C446.741 304.849 446.681 304.861 446.62 304.861L441.06 304.851C440.816 304.851 440.576 304.782 440.368 304.653C440.16 304.525 439.991 304.34 439.88 304.121L432.57 289.441C432.42 289.143 432.19 288.892 431.905 288.718C431.621 288.543 431.294 288.45 430.96 288.451L395.29 288.421C395.142 288.421 394.996 288.461 394.869 288.537C394.742 288.613 394.639 288.721 394.57 288.851L386.56 303.741C386.297 304.232 385.877 304.622 385.366 304.848C384.856 305.074 384.283 305.125 383.74 304.991L383.54 304.941C383.303 304.881 383.083 304.768 382.897 304.609C382.71 304.451 382.562 304.252 382.464 304.028C382.366 303.803 382.32 303.559 382.329 303.314C382.339 303.068 382.404 302.828 382.52 302.611C401.107 267.884 411.677 248.151 414.23 243.411C414.417 243.071 414.617 242.868 414.83 242.801C415.277 242.666 415.759 242.698 416.191 242.892C416.624 243.086 416.978 243.43 417.19 243.861C420.437 250.474 430.26 270.134 446.66 302.841C446.913 303.348 447.05 303.864 447.07 304.391ZM414.41 252.431C414.383 252.378 414.342 252.334 414.292 252.303C414.242 252.273 414.184 252.256 414.125 252.256C414.066 252.256 414.008 252.273 413.958 252.303C413.908 252.334 413.867 252.378 413.84 252.431L396.81 284.251C396.784 284.299 396.771 284.354 396.773 284.409C396.774 284.464 396.79 284.517 396.818 284.565C396.846 284.612 396.886 284.651 396.933 284.678C396.981 284.706 397.035 284.72 397.09 284.721H430.02C430.074 284.721 430.128 284.708 430.176 284.682C430.224 284.655 430.264 284.618 430.293 284.572C430.322 284.526 430.339 284.473 430.342 284.418C430.345 284.364 430.334 284.31 430.31 284.261L414.41 252.431Z" fill="#1A1A1A"/>
<path d="M501.162 286.358C501.149 286.251 501.159 286.142 501.191 286.039C501.224 285.935 501.278 285.84 501.349 285.759C501.421 285.677 501.509 285.612 501.608 285.567C501.706 285.523 501.813 285.499 501.922 285.499H505.952C506.257 285.499 506.552 285.611 506.78 285.813C507.009 286.016 507.155 286.295 507.192 286.598C507.938 292.825 511.508 297.178 517.902 299.658C521.282 300.968 525.512 300.569 528.252 301.429C528.735 301.585 529.252 301.599 529.742 301.468C530.948 301.142 533.352 300.885 536.952 300.699C539.322 300.579 542.752 299.049 544.982 297.749C547.942 296.029 549.608 293.358 549.982 289.738C550.582 283.898 546.542 281.358 541.702 278.798C541.277 278.566 540.823 278.388 540.352 278.269C536.172 277.189 533.902 276.388 530.452 275.798C525.258 274.905 520.228 273.779 515.362 272.419C508.932 270.619 504.142 267.739 502.752 260.909C501.152 253.069 507.752 246.809 514.992 244.949C519.952 243.669 524.435 242.965 528.442 242.839C532.352 242.719 535.382 243.669 538.732 244.159C543.852 244.919 548.182 247.409 551.722 251.629C553.312 253.539 553.842 255.889 554.122 258.339C554.136 258.459 554.124 258.582 554.089 258.698C554.053 258.814 553.994 258.921 553.915 259.012C553.836 259.104 553.738 259.177 553.629 259.228C553.52 259.279 553.402 259.307 553.282 259.309L549.322 259.358C549.146 259.361 548.974 259.305 548.833 259.201C548.692 259.096 548.59 258.947 548.542 258.779C548.495 258.619 547.948 257.502 546.902 255.429C544.552 250.799 541.022 249.569 535.952 247.919C535.865 247.892 535.778 247.872 535.692 247.858L528.262 246.849C528.063 246.822 527.86 246.829 527.662 246.869C519.972 248.389 512.702 247.619 508.902 256.199C508.68 256.694 508.614 257.248 508.712 257.789C509.232 260.595 510.135 262.598 511.422 263.798C515.262 267.398 521.642 268.469 525.632 269.339C533.732 271.099 539.335 272.422 542.442 273.309C549.652 275.369 555.402 279.249 556.462 286.829C556.675 288.362 556.488 290.149 555.902 292.189C554.602 296.735 551.628 300.069 546.982 302.189C543.815 303.635 540.912 304.515 538.272 304.829C522.532 306.689 503.222 305.118 501.162 286.358Z" fill="#1A1A1A"/>
<path d="M675.338 304.389C675.341 304.45 675.331 304.511 675.31 304.568C675.289 304.625 675.256 304.677 675.214 304.72C675.172 304.764 675.121 304.799 675.065 304.823C675.009 304.847 674.949 304.859 674.888 304.859H669.328C669.084 304.859 668.845 304.791 668.636 304.662C668.428 304.533 668.259 304.349 668.148 304.129L660.818 289.449C660.668 289.151 660.438 288.901 660.154 288.726C659.869 288.551 659.542 288.459 659.208 288.459H623.518C623.37 288.459 623.224 288.499 623.098 288.575C622.971 288.651 622.867 288.76 622.798 288.889L614.798 303.799C614.535 304.291 614.115 304.68 613.604 304.906C613.094 305.133 612.522 305.183 611.978 305.049L611.778 304.999C611.541 304.939 611.321 304.826 611.135 304.668C610.949 304.51 610.801 304.311 610.702 304.086C610.604 303.862 610.558 303.617 610.568 303.372C610.577 303.126 610.643 302.886 610.758 302.669C629.325 267.909 639.882 248.156 642.428 243.409C642.615 243.069 642.815 242.866 643.028 242.799C643.477 242.666 643.959 242.699 644.391 242.893C644.823 243.087 645.176 243.429 645.388 243.859C648.642 250.473 658.488 270.133 674.928 302.839C675.182 303.346 675.318 303.863 675.338 304.389ZM642.678 252.409C642.654 252.361 642.616 252.32 642.57 252.291C642.524 252.262 642.471 252.246 642.416 252.245C642.362 252.244 642.308 252.258 642.261 252.285C642.214 252.312 642.175 252.352 642.148 252.399L625.108 284.249C625.084 284.295 625.072 284.345 625.074 284.397C625.075 284.448 625.089 284.498 625.115 284.542C625.141 284.586 625.178 284.623 625.223 284.649C625.267 284.674 625.317 284.688 625.368 284.689H658.318C658.369 284.689 658.419 284.676 658.463 284.652C658.508 284.627 658.545 284.592 658.572 284.549C658.599 284.506 658.615 284.457 658.617 284.406C658.62 284.355 658.61 284.305 658.588 284.259L642.678 252.409Z" fill="#1A1A1A"/>
<path d="M279.42 248.5H253.64C253.465 248.5 253.298 248.431 253.174 248.307C253.05 248.183 252.98 248.015 252.98 247.84V244.48C252.98 244.305 253.05 244.137 253.174 244.014C253.298 243.89 253.465 243.82 253.64 243.82H311.94C312.116 243.82 312.283 243.89 312.407 244.014C312.531 244.137 312.6 244.305 312.6 244.48V247.83C312.6 248.005 312.531 248.173 312.407 248.297C312.283 248.421 312.116 248.49 311.94 248.49H286.85C286.764 248.49 286.678 248.507 286.598 248.541C286.518 248.574 286.445 248.622 286.384 248.684C286.322 248.745 286.274 248.818 286.241 248.898C286.208 248.978 286.19 249.064 286.19 249.15V304.2C286.19 304.375 286.121 304.543 285.997 304.667C285.873 304.791 285.705 304.86 285.53 304.86H280.74C280.565 304.86 280.398 304.791 280.274 304.667C280.15 304.543 280.08 304.375 280.08 304.2V249.16C280.08 248.985 280.011 248.817 279.887 248.694C279.763 248.57 279.596 248.5 279.42 248.5Z" fill="#1A1A1A"/>
<path d="M347.542 269.959C360.028 269.959 367.138 269.929 368.872 269.869C369.032 269.864 369.185 269.796 369.297 269.681C369.409 269.565 369.472 269.41 369.472 269.249V244.429C369.472 244.259 369.539 244.097 369.659 243.977C369.779 243.856 369.942 243.789 370.112 243.789H375.102C375.266 243.789 375.424 243.854 375.54 243.971C375.656 244.087 375.722 244.245 375.722 244.409V303.809C375.722 303.946 375.695 304.081 375.642 304.207C375.59 304.333 375.514 304.448 375.417 304.544C375.32 304.641 375.206 304.718 375.08 304.77C374.953 304.822 374.818 304.849 374.682 304.849H370.452C370.194 304.849 369.948 304.747 369.766 304.565C369.584 304.383 369.482 304.136 369.482 303.879V274.219C369.482 274.113 369.443 274.01 369.373 273.932C369.302 273.854 369.205 273.807 369.102 273.799C368.442 273.739 361.255 273.712 347.542 273.719C333.835 273.719 326.648 273.752 325.982 273.819C325.88 273.826 325.784 273.873 325.714 273.948C325.644 274.024 325.604 274.124 325.602 274.229L325.622 303.889C325.622 304.016 325.596 304.143 325.548 304.26C325.499 304.378 325.428 304.485 325.337 304.575C325.247 304.665 325.14 304.736 325.023 304.785C324.905 304.834 324.779 304.859 324.652 304.859L320.422 304.869C320.146 304.869 319.881 304.759 319.686 304.564C319.491 304.369 319.382 304.105 319.382 303.829L319.352 244.429C319.352 244.266 319.415 244.11 319.53 243.994C319.644 243.878 319.799 243.812 319.962 243.809L324.952 243.799C325.036 243.798 325.121 243.813 325.2 243.845C325.278 243.876 325.35 243.923 325.411 243.983C325.471 244.043 325.519 244.113 325.552 244.192C325.585 244.27 325.602 244.354 325.602 244.439L325.612 269.259C325.609 269.422 325.67 269.579 325.783 269.697C325.895 269.815 326.049 269.884 326.212 269.889C327.945 269.942 335.055 269.966 347.542 269.959Z" fill="#1A1A1A"/>
<path d="M463.265 243.775L458.105 243.784C457.751 243.785 457.465 244.072 457.466 244.425L457.57 304.205C457.571 304.559 457.858 304.845 458.211 304.844L463.371 304.835C463.725 304.834 464.011 304.547 464.01 304.194L463.906 244.414C463.905 244.06 463.618 243.774 463.265 243.775Z" fill="#1A1A1A"/>
<path d="M573.559 304.24C573.559 304.397 573.497 304.547 573.387 304.657C573.276 304.768 573.126 304.83 572.969 304.83H567.999C567.83 304.83 567.667 304.764 567.547 304.646C567.427 304.528 567.359 304.367 567.359 304.2V244.4C567.359 244.246 567.421 244.099 567.529 243.99C567.638 243.881 567.786 243.82 567.939 243.82C578.659 243.827 585.976 243.83 589.889 243.83C591.203 243.83 592.926 243.98 595.059 244.28C600.109 245 602.919 245.45 606.899 247.65C614.019 251.58 615.979 258.22 615.089 265.95C613.809 277.11 602.049 281.03 592.479 280.98C586.779 280.954 580.679 280.957 574.179 280.99C574.015 280.99 573.857 281.056 573.741 281.172C573.625 281.288 573.559 281.446 573.559 281.61V304.24ZM573.509 249.22L573.649 276.28C573.649 276.469 573.724 276.649 573.857 276.782C573.991 276.915 574.171 276.99 574.359 276.99L593.329 276.89C597.461 276.869 601.416 275.451 604.325 272.949C607.233 270.448 608.857 267.067 608.839 263.55L608.829 261.59C608.812 258.075 607.154 254.711 604.221 252.24C601.288 249.768 597.32 248.391 593.189 248.41L574.219 248.51C574.126 248.51 574.034 248.529 573.948 248.564C573.862 248.6 573.783 248.652 573.717 248.718C573.651 248.784 573.599 248.862 573.563 248.949C573.528 249.035 573.509 249.127 573.509 249.22Z" fill="#1A1A1A"/>
<path d="M224.281 263.739C201.549 263.739 183.121 281.451 183.121 303.299C183.121 325.148 201.549 342.859 224.281 342.859C247.013 342.859 265.441 325.148 265.441 303.299C265.441 281.451 247.013 263.739 224.281 263.739Z" fill="#6C9549"/>
<path d="M718.279 281.75C718.312 281.717 718.353 281.691 718.398 281.676C718.443 281.661 718.49 281.656 718.537 281.663C718.584 281.67 718.628 281.688 718.667 281.715C718.706 281.743 718.737 281.779 718.759 281.82L719.069 282.43C719.102 282.491 719.114 282.56 719.105 282.628C719.096 282.697 719.066 282.76 719.019 282.81C709.013 293.197 700.969 301.14 694.889 306.64C691.189 309.994 686.956 313.584 682.189 317.41C678.096 320.697 671.043 325.474 661.029 331.74C650.096 338.58 636.216 344.804 619.389 350.41C617.463 351.05 611.589 352.564 601.769 354.95C589.349 357.964 576.093 359.71 561.999 360.19C545.719 360.744 529.906 360.57 514.559 359.67C503.279 359.02 489.369 357.24 475.249 355.77C475.136 355.757 469.909 355.104 459.569 353.81C435.603 350.804 417.409 348.714 404.989 347.54C401.889 347.247 392.739 346.58 377.539 345.54C367.609 344.86 358.329 345.42 350.339 344.42C347.019 344.01 344.059 344.88 340.619 344.89C318.426 344.99 296.183 347.26 273.889 351.7C267.099 353.05 260.479 355.07 253.379 356.34C253.296 356.354 253.21 356.342 253.133 356.308C253.056 356.274 252.99 356.218 252.943 356.147C252.897 356.077 252.872 355.994 252.871 355.909C252.87 355.825 252.894 355.742 252.939 355.67C253.533 354.744 254.139 354.024 254.759 353.51C266.539 343.81 279.123 336.137 292.509 330.49C302.943 326.084 314.739 322.57 327.899 319.95C335.159 318.5 343.379 317.94 350.459 317.09C356.279 316.39 361.816 316.07 367.069 316.13C376.579 316.23 386.869 315.81 396.999 316.71C415.939 318.39 428.429 319.24 445.609 321.55C462.469 323.81 468.369 324.42 485.189 326.87C503.209 329.49 520.376 331.557 536.689 333.07C545.209 333.864 555.256 334.45 566.829 334.83C572.129 335 577.589 335.98 582.499 335.51C586.466 335.124 589.913 334.9 592.839 334.84C600.779 334.67 604.909 333.9 612.959 333.36C615.639 333.187 618.899 332.76 622.739 332.08C636.013 329.74 648.889 326.167 661.369 321.36C665.329 319.834 671.016 317.1 678.429 313.16C683.669 310.38 691.083 305.487 700.669 298.48C707.359 293.59 713.259 287.01 718.279 281.75Z" fill="#6C9549"/>
</svg>
